<!DOCTYPE svg PUBLIC "-//W3C//DTD SVG 20010904//EN" "http://www.w3.org/TR/2001/REC-SVG-20010904/DTD/svg10.dtd">
<svg version="1.0" xmlns="http://www.w3.org/2000/svg" width="1200px" height="1200px" viewBox="0 0 12000 12000" preserveAspectRatio="xMidYMid meet">
<g id="layer101" fill="#40a798" stroke="none">
<path d="M6465 3589 c-4 -6 2 -20 12 -32 11 -12 82 -95 157 -184 75 -89 145 -165 156 -168 11 -3 28 -2 38 4 24 13 317 359 317 375 0 15 -671 21 -680 5z"/>
</g>
<g id="layer102" fill="#f5e1da" stroke="none">
<path d="M3402 9039 c-68 -27 -145 -103 -180 -176 -38 -82 -38 -194 -1 -273 33 -70 99 -136 169 -169 47 -22 69 -26 145 -25 100 0 152 18 220 77 l37 32 -227 219 c-124 120 -224 223 -222 229 2 6 28 24 58 41 47 27 63 31 129 30 83 0 131 -19 207 -80 46 -38 53 -40 53 -20 0 25 -51 76 -104 103 -71 37 -206 43 -284 12z m122 -328 l208 -208 -30 -22 c-85 -60 -206 -71 -295 -27 -134 65 -202 206 -166 341 12 43 55 125 67 125 4 0 101 -94 216 -209z"/>
<path d="M4783 9030 c-214 -108 -255 -394 -77 -549 53 -47 129 -80 201 -87 124 -13 283 65 283 139 l0 31 -42 -41 c-99 -97 -230 -120 -346 -62 -109 54 -166 145 -165 264 0 95 29 160 99 224 119 109 278 107 404 -5 50 -46 50 -46 50 -19 0 31 -43 76 -104 108 -32 16 -64 22 -141 25 -96 3 -103 2 -162 -28z"/>
<path d="M5840 9044 c-159 -57 -252 -220 -220 -382 14 -70 45 -124 102 -179 140 -136 377 -119 495 36 l33 43 0 -81 c0 -74 2 -81 20 -81 20 0 20 7 20 325 0 318 0 325 -20 325 -18 0 -20 -7 -21 -82 0 -81 0 -82 -17 -58 -30 45 -88 96 -138 120 -64 31 -189 38 -254 14z m245 -49 c131 -64 197 -223 150 -364 -23 -69 -99 -151 -167 -181 -195 -86 -413 60 -412 275 2 225 229 368 429 270z"/>
<path d="M8330 9044 c-159 -57 -252 -220 -220 -382 14 -70 45 -124 102 -179 140 -136 377 -119 495 36 l33 43 0 -81 c0 -74 2 -81 20 -81 20 0 20 7 20 325 0 318 0 325 -20 325 -18 0 -20 -7 -21 -82 0 -81 0 -82 -17 -58 -30 45 -88 96 -138 120 -64 31 -189 38 -254 14z m245 -49 c131 -64 197 -223 150 -364 -23 -69 -99 -151 -167 -181 -195 -86 -413 60 -412 275 2 225 229 368 429 270z"/>
<path d="M2690 8510 c0 -533 0 -540 20 -540 20 0 20 7 20 520 l0 520 170 0 c163 0 170 1 170 20 0 19 -7 20 -190 20 l-190 0 0 -540z"/>
<path d="M4073 9029 c-48 -24 -88 -66 -112 -119 -14 -30 -16 -87 -16 -400 0 -358 0 -365 20 -365 19 0 20 8 23 133 l3 132 94 0 c78 0 95 3 95 15 0 12 -17 15 -96 15 l-95 0 3 228 3 229 29 37 c35 46 79 74 129 82 21 4 36 12 34 18 -6 20 -70 17 -114 -5z"/>
<path d="M4360 8730 c0 -313 0 -320 20 -320 20 0 20 7 20 320 0 313 0 320 -20 320 -20 0 -20 -7 -20 -320z"/>
<path d="M5370 8730 c0 -313 0 -320 20 -320 20 0 20 7 20 320 0 313 0 320 -20 320 -20 0 -20 -7 -20 -320z"/>
<path d="M7050 8510 l0 -543 80 7 c207 17 358 117 445 294 100 203 56 468 -102 627 -95 95 -189 135 -350 150 l-73 7 0 -542z m208 475 c214 -64 357 -307 324 -548 -34 -240 -237 -427 -463 -427 l-29 0 0 501 0 502 60 -7 c33 -4 81 -13 108 -21z"/>
<path d="M7850 8730 c0 -313 0 -320 20 -320 20 0 20 7 20 320 0 313 0 320 -20 320 -20 0 -20 -7 -20 -320z"/>
<path d="M8943 9043 c3 -5 82 -135 176 -290 94 -155 174 -288 177 -297 5 -14 -12 -16 -155 -16 -154 0 -161 -1 -161 -20 0 -19 7 -20 201 -20 110 0 198 3 196 8 -2 4 -82 135 -176 291 -95 156 -175 290 -178 297 -4 12 28 14 176 14 174 0 181 1 181 20 0 19 -7 20 -221 20 -121 0 -218 -3 -216 -7z"/>
<path d="M7766 8272 c110 -96 177 -143 195 -140 18 2 6 16 -66 76 -59 48 -96 72 -113 72 -15 0 -22 -4 -16 -8z"/>
<path d="M4344 8226 c-11 -28 1 -51 27 -54 34 -4 54 20 39 47 -12 24 -58 29 -66 7z"/>
<path d="M5354 8226 c-11 -28 1 -51 27 -54 34 -4 54 20 39 47 -12 24 -58 29 -66 7z"/>
<path d="M6859 7509 c-102 -16 -219 -95 -219 -147 0 -26 1 -25 43 15 160 157 403 130 493 -53 22 -46 28 -73 32 -156 l5 -101 -59 60 c-73 74 -141 103 -244 103 -95 0 -166 -28 -231 -91 -97 -94 -129 -229 -85 -357 23 -67 101 -153 169 -186 142 -70 321 -29 414 93 l33 43 0 -81 c0 -74 2 -81 20 -81 20 0 20 7 20 329 0 302 -2 334 -20 394 -48 155 -200 244 -371 216z m190 -345 c96 -52 151 -137 159 -245 6 -91 -16 -154 -79 -223 -145 -159 -391 -123 -486 71 -22 47 -27 70 -27 128 1 139 86 251 224 296 51 17 154 4 209 -27z"/>
<path d="M3980 7211 c-97 -31 -163 -72 -235 -145 -113 -114 -165 -237 -165 -393 0 -389 392 -652 764 -513 69 26 89 41 81 62 -6 16 -11 15 -56 -7 -105 -54 -256 -70 -365 -41 -178 47 -340 219 -374 395 -41 216 46 420 234 547 140 95 339 104 501 25 33 -17 61 -28 63 -26 2 2 1 12 -2 23 -7 22 -95 65 -166 81 -72 17 -217 12 -280 -8z"/>
<path d="M4846 7215 c-83 -32 -170 -120 -202 -206 -25 -65 -23 -182 4 -242 29 -66 112 -150 175 -178 42 -19 69 -24 142 -24 78 0 97 4 146 28 63 30 125 92 161 159 32 60 33 211 2 278 -30 64 -93 131 -155 165 -47 25 -66 30 -144 32 -62 2 -102 -2 -129 -12z m249 -50 c131 -64 197 -223 150 -364 -23 -69 -99 -151 -167 -181 -195 -86 -413 60 -412 275 2 225 229 368 429 270z"/>
<path d="M5657 7216 c-59 -22 -107 -64 -133 -120 l-24 -51 0 -452 c0 -446 0 -453 20 -453 20 0 20 7 20 448 0 445 0 448 23 492 29 57 83 100 136 107 31 4 41 10 41 24 0 23 -28 24 -83 5z"/>
<path d="M6032 7209 c-68 -27 -145 -103 -180 -176 -38 -82 -38 -194 -1 -273 33 -70 99 -136 169 -169 47 -22 69 -26 145 -25 100 0 152 18 220 77 l36 32 -226 219 c-124 120 -224 223 -222 229 2 6 28 24 58 41 47 27 63 31 129 30 83 0 131 -19 207 -80 46 -38 53 -40 53 -20 0 25 -51 76 -104 103 -71 37 -206 43 -284 12z m122 -328 l208 -208 -30 -22 c-85 -60 -206 -71 -295 -27 -134 65 -202 206 -166 341 12 43 55 125 67 125 4 0 101 -94 216 -209z"/>
<path d="M7976 7215 c-83 -32 -170 -120 -202 -206 -25 -65 -23 -182 4 -242 29 -66 112 -150 175 -178 42 -19 69 -24 142 -24 78 0 97 4 146 28 63 30 125 92 161 159 32 60 33 211 2 278 -30 64 -93 131 -155 165 -47 25 -66 30 -144 32 -62 2 -102 -2 -129 -12z m249 -50 c131 -64 197 -223 150 -364 -23 -69 -99 -151 -167 -181 -195 -86 -413 60 -412 275 2 225 229 368 429 270z"/>
<path d="M7500 6900 c0 -313 0 -320 20 -320 20 0 20 7 20 320 0 313 0 320 -20 320 -20 0 -20 -7 -20 -320z"/>
<path d="M7484 6396 c-11 -28 1 -51 27 -54 34 -4 54 20 39 47 -12 24 -58 29 -66 7z"/>
<path d="M5070 5817 c-46 -23 -50 -44 -50 -314 l0 -253 29 -32 29 -33 266 0 266 0 27 28 28 27 0 266 0 266 -33 29 -32 29 -253 0 c-182 0 -259 -4 -277 -13z"/>
<path d="M5809 5815 c-15 -8 -31 -27 -36 -42 -5 -16 -9 -142 -8 -280 l0 -253 28 -27 27 -27 249 -1 c137 0 263 3 280 8 56 14 61 37 61 311 0 265 -4 287 -51 312 -41 21 -512 20 -550 -1z"/>
<path d="M6533 5820 c-49 -20 -54 -50 -51 -325 l3 -255 28 -27 27 -28 265 0 265 0 27 28 28 27 3 250 c3 273 -2 305 -54 329 -30 13 -507 14 -541 1z"/>
<path d="M5083 5080 c-12 -5 -29 -19 -37 -32 -22 -34 -176 -465 -176 -493 0 -50 36 -71 270 -155 124 -45 231 -83 239 -86 23 -8 80 16 93 39 31 58 168 455 168 487 0 25 -7 43 -23 58 -20 19 -423 173 -487 186 -14 3 -35 1 -47 -4z"/>
<path d="M5798 5061 l-33 -29 0 -266 0 -266 28 -27 27 -28 243 -3 c157 -2 255 1 279 8 64 19 68 35 68 314 0 162 -4 254 -11 270 -23 50 -55 56 -323 56 l-246 0 -32 -29z"/>
<path d="M6531 5076 c-47 -27 -50 -44 -51 -309 0 -276 4 -296 61 -316 49 -17 491 -15 533 3 54 22 57 43 54 324 l-3 252 -28 27 -27 28 -258 2 c-201 2 -262 0 -281 -11z"/>
<path d="M6506 4309 l-26 -31 0 -249 c0 -272 4 -294 55 -317 41 -19 507 -17 544 3 49 25 52 49 49 324 l-3 253 -28 24 -28 24 -269 0 -268 0 -26 -31z"/>
</g>


</svg>