<?xml version="1.0" encoding="utf-8"?>
<!-- Generator: Adobe Illustrator 24.1.2, SVG Export Plug-In . SVG Version: 6.00 Build 0)  -->
<svg version="1.1" id="Capa_1" xmlns="http://www.w3.org/2000/svg" xmlns:xlink="http://www.w3.org/1999/xlink" x="0px" y="0px"
	 viewBox="0 0 1204.3 139.2" style="enable-background:new 0 0 1204.3 139.2;" xml:space="preserve">
<style type="text/css">
	.st0{fill:#2A3A68;}
</style>
<path class="st0" d="M606.5,107.9c-6.8-2.7-14.5-10.3-18-17.6c-3.8-8.2-3.8-19.4-0.1-27.3c3.3-7,9.9-13.6,16.9-16.9
	c4.7-2.2,6.9-2.6,14.5-2.5c10,0,15.2,1.8,22,7.7l3.7,3.2l-22.7,21.9c-12.4,12-22.4,22.3-22.2,22.9s2.8,2.4,5.8,4.1
	c4.7,2.7,6.3,3.1,12.9,3c8.3,0,13.1-1.9,20.7-8c4.6-3.8,5.3-4,5.3-2c0,2.5-5.1,7.6-10.4,10.3C627.8,110.4,614.3,111,606.5,107.9z
	 M618.7,75.1l20.8-20.8l-3-2.2c-8.5-6-20.6-7.1-29.5-2.7c-13.4,6.5-20.2,20.6-16.6,34.1c1.2,4.3,5.5,12.5,6.7,12.5
	C597.5,96,607.2,86.6,618.7,75.1z"/>
<path class="st0" d="M744.6,107c-21.4-10.8-25.5-39.4-7.7-54.9c5.3-4.7,12.9-8,20.1-8.7c12.4-1.3,28.3,6.5,28.3,13.9v3.1l-4.2-4.1
	c-9.9-9.7-23-12-34.6-6.2c-10.9,5.4-16.6,14.5-16.5,26.4c0,9.5,2.9,16,9.9,22.4c11.9,10.9,27.8,10.7,40.4-0.5c5-4.6,5-4.6,5-1.9
	c0,3.1-4.3,7.6-10.4,10.8c-3.2,1.6-6.4,2.2-14.1,2.5C751.2,110.1,750.5,110,744.6,107z"/>
<path class="st0" d="M850.3,108.4c-15.9-5.7-25.2-22-22-38.2c1.4-7,4.5-12.4,10.2-17.9c14-13.6,37.7-11.9,49.5,3.6l3.3,4.3v-8.1
	c0-7.4,0.2-8.1,2-8.1c2,0,2,0.7,2,32.5s0,32.5-2,32.5c-1.8,0-2-0.7-2.1-8.2c0-8.1,0-8.2-1.7-5.8c-3,4.5-8.8,9.6-13.8,12
	C869.3,110.1,856.8,110.8,850.3,108.4z M874.8,103.5c13.1-6.4,19.7-22.3,15-36.4c-2.3-6.9-9.9-15.1-16.7-18.1
	c-19.5-8.6-41.3,6-41.2,27.5C832.1,99,854.8,113.3,874.8,103.5z"/>
<path class="st0" d="M1099.3,108.4c-15.9-5.7-25.2-22-22-38.2c1.4-7,4.5-12.4,10.2-17.9c14-13.6,37.7-11.9,49.5,3.6l3.3,4.3v-8.1
	c0-7.4,0.2-8.1,2-8.1c2,0,2,0.7,2,32.5s0,32.5-2,32.5c-1.8,0-2-0.7-2.1-8.2c0-8.1,0-8.2-1.7-5.8c-3,4.5-8.8,9.6-13.8,12
	C1118.3,110.1,1105.8,110.8,1099.3,108.4z M1123.8,103.5c13.1-6.4,19.7-22.3,15-36.4c-2.3-6.9-9.9-15.1-16.7-18.1
	c-19.5-8.6-41.3,6-41.2,27.5C1081.1,99,1103.8,113.3,1123.8,103.5z"/>
<path class="st0" d="M535.3,55c0-53.3,0-54,2-54s2,0.7,2,52v52h17c16.3,0,17,0.1,17,2s-0.7,2-19,2h-19V55z"/>
<path class="st0" d="M673.6,106.9c-4.8-2.4-8.8-6.6-11.2-11.9c-1.4-3-1.6-8.7-1.6-40c0-35.8,0-36.5,2-36.5c1.9,0,2,0.8,2.3,13.3
	l0.3,13.2h9.4c7.8,0,9.5,0.3,9.5,1.5s-1.7,1.5-9.6,1.5h-9.5l0.3,22.8l0.3,22.9l2.9,3.7c3.5,4.6,7.9,7.4,12.9,8.2
	c2.1,0.4,3.6,1.2,3.4,1.8C684.4,109.4,678,109.1,673.6,106.9z"/>
<path class="st0" d="M702.3,77c0-31.3,0-32,2-32s2,0.7,2,32s0,32-2,32S702.3,108.3,702.3,77z"/>
<path class="st0" d="M803.3,77c0-31.3,0-32,2-32s2,0.7,2,32s0,32-2,32S803.3,108.3,803.3,77z"/>
<path class="st0" d="M971.3,55V0.7l8,0.7c20.7,1.7,35.8,11.7,44.5,29.4c10,20.3,5.6,46.8-10.2,62.7c-9.5,9.5-18.9,13.5-35,15
	l-7.3,0.7V55z M992.1,102.5c21.4-6.4,35.7-30.7,32.4-54.8c-3.4-24-23.7-42.7-46.3-42.7h-2.9v50.1v50.2l6-0.7
	C984.6,104.2,989.4,103.3,992.1,102.5z"/>
<path class="st0" d="M1051.3,77c0-31.3,0-32,2-32s2,0.7,2,32s0,32-2,32S1051.3,108.3,1051.3,77z"/>
<path class="st0" d="M1160.6,108.3c0.3-0.5,8.2-13.5,17.6-29s17.4-28.8,17.7-29.7c0.5-1.4-1.2-1.6-15.5-1.6c-15.4,0-16.1-0.1-16.1-2
	s0.7-2,20.1-2c11,0,19.8,0.3,19.6,0.8c-0.2,0.4-8.2,13.5-17.6,29.1c-9.5,15.6-17.5,29-17.8,29.7c-0.4,1.2,2.8,1.4,17.6,1.4
	c17.4,0,18.1,0.1,18.1,2s-0.7,2-22.1,2C1170.1,109,1160.4,108.7,1160.6,108.3z"/>
<path class="st0" d="M1042.9,31.2c11-9.6,17.7-14.3,19.5-14c1.8,0.2,0.6,1.6-6.6,7.6c-5.9,4.8-9.6,7.2-11.3,7.2
	C1043,32,1042.3,31.6,1042.9,31.2z"/>
<path class="st0" d="M700.7,26.6c-1.1-2.8,0.1-5.1,2.7-5.4c3.4-0.4,5.4,2,3.9,4.7C706.1,28.3,701.5,28.8,700.7,26.6z"/>
<path class="st0" d="M801.7,26.6c-1.1-2.8,0.1-5.1,2.7-5.4c3.4-0.4,5.4,2,3.9,4.7C807.1,28.3,802.5,28.8,801.7,26.6z"/>
<path class="st0" d="M327.9,138.7c-10.2-1.6-21.9-9.5-21.9-14.7c0-2.6,0.1-2.5,4.3,1.5c16,15.7,40.3,13,49.3-5.3
	c2.2-4.6,2.8-7.3,3.2-15.6l0.5-10.1l-5.9,6c-7.3,7.4-14.1,10.3-24.4,10.3c-9.5,0-16.6-2.8-23.1-9.1c-9.7-9.4-12.9-22.9-8.5-35.7
	c2.3-6.7,10.1-15.3,16.9-18.6c14.2-7,32.1-2.9,41.4,9.3L363,61v-8.1c0-7.4,0.2-8.1,2-8.1c2,0,2,0.7,2,32.9c0,30.2-0.2,33.4-2,39.4
	C360.2,132.6,345,141.5,327.9,138.7z M346.9,104.2c9.6-5.2,15.1-13.7,15.9-24.5c0.6-9.1-1.6-15.4-7.9-22.3
	c-14.5-15.9-39.1-12.3-48.6,7.1c-2.2,4.7-2.7,7-2.7,12.8c0.1,13.9,8.6,25.1,22.4,29.6C331.1,108.6,341.4,107.3,346.9,104.2z"/>
<path class="st0" d="M40,108.9c-9.7-3.1-16.3-7.2-23.5-14.5C5.2,83,0,70.7,0,55.1C0,16.2,39.2-10.1,76.4,3.8
	c6.9,2.6,8.9,4.1,8.1,6.2c-0.6,1.6-1.1,1.5-5.6-0.7c-10.5-5.4-25.6-7-36.5-4.1C24.6,9.9,8.4,27.1,5,44.7c-4.1,21.6,4.6,42,23.4,54.7
	c14,9.5,33.9,10.4,50.1,2.5c3.3-1.7,6.1-2.8,6.3-2.6c0.2,0.2,0.1,1.2-0.2,2.3c-0.7,2.2-9.5,6.5-16.6,8.1
	C60.8,111.4,46.3,110.9,40,108.9z"/>
<path class="st0" d="M126.6,109.3c-8.3-3.2-17-12-20.2-20.6c-2.5-6.5-2.3-18.2,0.4-24.2c2.9-6.6,11.2-15,17.5-17.8
	c4.2-1.9,6.9-2.4,14.2-2.4c7.8,0,9.7,0.4,14.6,2.8c6.3,3,12.5,9.2,16.1,15.9c3.2,6,3.3,21.1,0.2,27.8c-3,6.4-9.3,13.1-15.5,16.5
	c-4.7,2.5-6.6,3-14.4,3.2C133.3,110.7,129.3,110.3,126.6,109.3z M151.5,104.3c13.1-6.4,19.7-22.3,15-36.4
	c-2.3-6.9-9.9-15.1-16.7-18.1c-19.5-8.6-41.3,6-41.2,27.5C108.8,99.8,131.5,114.1,151.5,104.3z"/>
<path class="st0" d="M207.7,109.4c-5.9-2.2-10.7-6.4-13.3-12l-2.4-5.1V47.1c0-44.6,0-45.3,2-45.3s2,0.7,2,44.8
	c0,44.5,0,44.8,2.3,49.2c2.9,5.7,8.3,10,13.6,10.7c3.1,0.4,4.1,1,4.1,2.4C216,111.2,213.2,111.3,207.7,109.4z"/>
<path class="st0" d="M245.2,108.7c-6.8-2.7-14.5-10.3-18-17.6c-3.8-8.2-3.8-19.4-0.1-27.3c3.3-7,9.9-13.6,16.9-16.9
	c4.7-2.2,6.9-2.6,14.5-2.5c10,0,15.2,1.8,22,7.7l3.6,3.2l-22.6,21.9c-12.4,12-22.4,22.3-22.2,22.9s2.8,2.4,5.8,4.1
	c4.7,2.7,6.3,3.1,12.9,3c8.3,0,13.1-1.9,20.7-8c4.6-3.8,5.3-4,5.3-2c0,2.5-5.1,7.6-10.4,10.3C266.5,111.2,253,111.8,245.2,108.7z
	 M257.4,75.9l20.8-20.8l-3-2.2c-8.5-6-20.6-7.1-29.5-2.7c-13.4,6.5-20.2,20.6-16.6,34.1c1.2,4.3,5.5,12.5,6.7,12.5
	C236.2,96.8,245.9,87.4,257.4,75.9z"/>
<path class="st0" d="M439.6,109.3c-8.3-3.2-17-12-20.2-20.6c-2.5-6.5-2.3-18.2,0.4-24.2c2.9-6.6,11.2-15,17.5-17.8
	c4.2-1.9,6.9-2.4,14.2-2.4c7.8,0,9.7,0.4,14.6,2.8c6.3,3,12.5,9.2,16.1,15.9c3.2,6,3.3,21.1,0.2,27.8c-3,6.4-9.3,13.1-15.5,16.5
	c-4.7,2.5-6.6,3-14.4,3.2C446.3,110.7,442.3,110.3,439.6,109.3z M464.5,104.3c13.1-6.4,19.7-22.3,15-36.4
	c-2.3-6.9-9.9-15.1-16.7-18.1c-19.5-8.6-41.3,6-41.2,27.5C421.8,99.8,444.5,114.1,464.5,104.3z"/>
<path class="st0" d="M392,77.8c0-31.3,0-32,2-32s2,0.7,2,32s0,32-2,32S392,109.1,392,77.8z"/>
<path class="st0" d="M390.4,27.4c-1.1-2.8,0.1-5.1,2.7-5.4c3.4-0.4,5.4,2,3.9,4.7C395.8,29.1,391.2,29.6,390.4,27.4z"/>
</svg>
