<?xml version="1.0" encoding="utf-8"?>
<!-- Generator: Adobe Illustrator 24.1.2, SVG Export Plug-In . SVG Version: 6.00 Build 0)  -->
<svg version="1.1" id="Capa_1" xmlns="http://www.w3.org/2000/svg" xmlns:xlink="http://www.w3.org/1999/xlink" x="0px" y="0px"
	 viewBox="0 0 227.5 262.79" style="enable-background:new 0 0 227.5 262.79;" xml:space="preserve">
<style type="text/css">
	.st0{fill:#40A798;}
	.st1{fill:#F5E1DA;}
</style>
<g id="layer101">
	<path class="st0" d="M159.5,38.56c-0.4-0.6,0.2-2,1.2-3.2c1.1-1.2,8.2-9.5,15.7-18.4s14.5-16.5,15.6-16.8c1.1-0.3,2.8-0.2,3.8,0.4
		c2.4,1.3,31.7,35.9,31.7,37.5C227.5,39.56,160.4,40.16,159.5,38.56z"/>
</g>
<path class="st1" d="M20,261.36c-4.6-2.3-5-4.4-5-31.4v-25.3l2.9-3.2l2.9-3.3h26.6H74l2.7,2.8l2.8,2.7v26.6v26.6l-3.3,2.9l-3.2,2.9
	H47.7C29.5,262.66,21.8,262.26,20,261.36z"/>
<path class="st1" d="M93.9,261.16c-1.5-0.8-3.1-2.7-3.6-4.2c-0.5-1.6-0.9-14.2-0.8-28v-25.3l2.8-2.7l2.7-2.7l24.9-0.1
	c13.7,0,26.3,0.3,28,0.8c5.6,1.4,6.1,3.7,6.1,31.1c0,26.5-0.4,28.7-5.1,31.2C144.8,263.36,97.7,263.26,93.9,261.16z"/>
<path class="st1" d="M166.3,261.66c-4.9-2-5.4-5-5.1-32.5l0.3-25.5l2.8-2.7l2.7-2.8h26.5H220l2.7,2.8l2.8,2.7l0.3,25
	c0.3,27.3-0.2,30.5-5.4,32.9C217.4,262.86,169.7,262.96,166.3,261.66z"/>
<path class="st1" d="M21.3,187.66c-1.2-0.5-2.9-1.9-3.7-3.2c-2.2-3.4-17.6-46.5-17.6-49.3c0-5,3.6-7.1,27-15.5
	c12.4-4.5,23.1-8.3,23.9-8.6c2.3-0.8,8,1.6,9.3,3.9c3.1,5.8,16.8,45.5,16.8,48.7c0,2.5-0.7,4.3-2.3,5.8c-2,1.9-42.3,17.3-48.7,18.6
	C24.6,188.36,22.5,188.16,21.3,187.66z"/>
<path class="st1" d="M92.8,185.76l-3.3-2.9v-26.6v-26.6l2.8-2.7l2.7-2.8l24.3-0.3c15.7-0.2,25.5,0.1,27.9,0.8
	c6.4,1.9,6.8,3.5,6.8,31.4c0,16.2-0.4,25.4-1.1,27c-2.3,5-5.5,5.6-32.3,5.6H96L92.8,185.76z"/>
<path class="st1" d="M166.1,187.26c-4.7-2.7-5-4.4-5.1-30.9c0-27.6,0.4-29.6,6.1-31.6c4.9-1.7,49.1-1.5,53.3,0.3
	c5.4,2.2,5.7,4.3,5.4,32.4l-0.3,25.2l-2.8,2.7l-2.7,2.8l-25.8,0.2C174.1,188.56,168,188.36,166.1,187.26z"/>
<path class="st1" d="M163.6,110.56l-2.6-3.1v-24.9c0-27.2,0.4-29.4,5.5-31.7c4.1-1.9,50.7-1.7,54.4,0.3c4.9,2.5,5.2,4.9,4.9,32.4
	l-0.3,25.3l-2.8,2.4l-2.8,2.4H193h-26.8L163.6,110.56z"/>
</svg>
